<svg xmlns="http://www.w3.org/2000/svg" version="1.1" xmlns:xlink="http://www.w3.org/1999/xlink" xmlns:svgjs="http://svgjs.dev/svgjs" width="1920" height="1080" preserveAspectRatio="none" viewBox="0 0 1920 1080"><g mask="url(&quot;#SvgjsMask1252&quot;)" fill="none"><path d="M307.97 112.02L398.9 164.52L398.9 269.52L307.97 322.02L217.03 269.52L217.03 164.52zM398.9 584.52L489.84 637.02L489.84 742.02L398.9 794.52L307.97 742.02L307.97 637.02zM671.71 742.02L762.64 794.52L762.64 899.52L671.71 952.02L580.77 899.52L580.77 794.52zM1035.45 112.02L1126.38 164.52L1126.38 269.52L1035.45 322.02L944.51 269.52L944.51 164.52zM1126.38 584.52L1217.32 637.02L1217.32 742.02L1126.38 794.52L1035.45 742.02L1035.45 637.02zM1308.25 269.52L1399.19 322.02L1399.19 427.02L1308.25 479.52L1217.32 427.02L1217.32 322.02zM1308.25 584.52L1399.19 637.02L1399.19 742.02L1308.25 794.52L1217.32 742.02L1217.32 637.02zM1581.06 742.02L1671.99 794.52L1671.99 899.52L1581.06 952.02L1490.12 899.52L1490.12 794.52zM1944.8 1057.02L2035.74 1109.52L2035.74 1214.52L1944.8 1267.02L1853.87 1214.52L1853.87 1109.52z" stroke="rgba(215, 146, 100, 0.15)" stroke-width="2"></path><path d="M28.82 -33.3L72.12 -8.3L72.12 41.7L28.82 66.7L-14.48 41.7L-14.48 -8.3zM28.82 416.7L72.12 441.7L72.12 491.7L28.82 516.7L-14.48 491.7L-14.48 441.7zM158.73 791.7L202.03 816.7L202.03 866.7L158.73 891.7L115.43 866.7L115.43 816.7zM158.73 941.7L202.03 966.7L202.03 1016.7L158.73 1041.7L115.43 1016.7L115.43 966.7zM202.03 -33.3L245.33 -8.3L245.33 41.7L202.03 66.7L158.73 41.7L158.73 -8.3zM202.03 566.7L245.33 591.7L245.33 641.7L202.03 666.7L158.73 641.7L158.73 591.7zM245.33 791.7L288.63 816.7L288.63 866.7L245.33 891.7L202.03 866.7L202.03 816.7zM202.03 866.7L245.33 891.7L245.33 941.7L202.03 966.7L158.73 941.7L158.73 891.7zM202.03 1016.7L245.33 1041.7L245.33 1091.7L202.03 1116.7L158.73 1091.7L158.73 1041.7zM331.94 491.7L375.24 516.7L375.24 566.7L331.94 591.7L288.63 566.7L288.63 516.7zM331.94 941.7L375.24 966.7L375.24 1016.7L331.94 1041.7L288.63 1016.7L288.63 966.7zM505.15 41.7L548.45 66.7L548.45 116.7L505.15 141.7L461.85 116.7L461.85 66.7zM461.85 416.7L505.15 441.7L505.15 491.7L461.85 516.7L418.54 491.7L418.54 441.7zM461.85 716.7L505.15 741.7L505.15 791.7L461.85 816.7L418.54 791.7L418.54 741.7zM591.75 641.7L635.06 666.7L635.06 716.7L591.75 741.7L548.45 716.7L548.45 666.7zM635.06 116.7L678.36 141.7L678.36 191.7L635.06 216.7L591.75 191.7L591.75 141.7zM678.36 491.7L721.66 516.7L721.66 566.7L678.36 591.7L635.06 566.7L635.06 516.7zM678.36 941.7L721.66 966.7L721.66 1016.7L678.36 1041.7L635.06 1016.7L635.06 966.7zM721.66 866.7L764.96 891.7L764.96 941.7L721.66 966.7L678.36 941.7L678.36 891.7zM894.87 116.7L938.17 141.7L938.17 191.7L894.87 216.7L851.57 191.7L851.57 141.7zM894.87 266.7L938.17 291.7L938.17 341.7L894.87 366.7L851.57 341.7L851.57 291.7zM894.87 566.7L938.17 591.7L938.17 641.7L894.87 666.7L851.57 641.7L851.57 591.7zM981.48 -33.3L1024.78 -8.3L1024.78 41.7L981.48 66.7L938.17 41.7L938.17 -8.3zM981.48 116.7L1024.78 141.7L1024.78 191.7L981.48 216.7L938.17 191.7L938.17 141.7zM1024.78 191.7L1068.08 216.7L1068.08 266.7L1024.78 291.7L981.48 266.7L981.48 216.7zM981.48 566.7L1024.78 591.7L1024.78 641.7L981.48 666.7L938.17 641.7L938.17 591.7zM1024.78 641.7L1068.08 666.7L1068.08 716.7L1024.78 741.7L981.48 716.7L981.48 666.7zM1111.38 41.7L1154.68 66.7L1154.68 116.7L1111.38 141.7L1068.08 116.7L1068.08 66.7zM1111.38 341.7L1154.68 366.7L1154.68 416.7L1111.38 441.7L1068.08 416.7L1068.08 366.7zM1197.99 341.7L1241.29 366.7L1241.29 416.7L1197.99 441.7L1154.68 416.7L1154.68 366.7zM1241.29 -33.3L1284.59 -8.3L1284.59 41.7L1241.29 66.7L1197.99 41.7L1197.99 -8.3zM1284.59 41.7L1327.89 66.7L1327.89 116.7L1284.59 141.7L1241.29 116.7L1241.29 66.7zM1241.29 416.7L1284.59 441.7L1284.59 491.7L1241.29 516.7L1197.99 491.7L1197.99 441.7zM1327.89 266.7L1371.2 291.7L1371.2 341.7L1327.89 366.7L1284.59 341.7L1284.59 291.7zM1327.89 1016.7L1371.2 1041.7L1371.2 1091.7L1327.89 1116.7L1284.59 1091.7L1284.59 1041.7zM1414.5 -33.3L1457.8 -8.3L1457.8 41.7L1414.5 66.7L1371.2 41.7L1371.2 -8.3zM1414.5 116.7L1457.8 141.7L1457.8 191.7L1414.5 216.7L1371.2 191.7L1371.2 141.7zM1414.5 566.7L1457.8 591.7L1457.8 641.7L1414.5 666.7L1371.2 641.7L1371.2 591.7zM1457.8 791.7L1501.11 816.7L1501.11 866.7L1457.8 891.7L1414.5 866.7L1414.5 816.7zM1414.5 1016.7L1457.8 1041.7L1457.8 1091.7L1414.5 1116.7L1371.2 1091.7L1371.2 1041.7zM1674.32 266.7L1717.62 291.7L1717.62 341.7L1674.32 366.7L1631.01 341.7L1631.01 291.7zM1674.32 416.7L1717.62 441.7L1717.62 491.7L1674.32 516.7L1631.01 491.7L1631.01 441.7zM1804.22 341.7L1847.53 366.7L1847.53 416.7L1804.22 441.7L1760.92 416.7L1760.92 366.7zM1760.92 416.7L1804.22 441.7L1804.22 491.7L1760.92 516.7L1717.62 491.7L1717.62 441.7zM1804.22 491.7L1847.53 516.7L1847.53 566.7L1804.22 591.7L1760.92 566.7L1760.92 516.7zM1847.53 716.7L1890.83 741.7L1890.83 791.7L1847.53 816.7L1804.22 791.7L1804.22 741.7zM1977.43 341.7L2020.74 366.7L2020.74 416.7L1977.43 441.7L1934.13 416.7L1934.13 366.7zM1934.13 416.7L1977.43 441.7L1977.43 491.7L1934.13 516.7L1890.83 491.7L1890.83 441.7zM1977.43 491.7L2020.74 516.7L2020.74 566.7L1977.43 591.7L1934.13 566.7L1934.13 516.7zM1977.43 941.7L2020.74 966.7L2020.74 1016.7L1977.43 1041.7L1934.13 1016.7L1934.13 966.7zM1934.13 1016.7L1977.43 1041.7L1977.43 1091.7L1934.13 1116.7L1890.83 1091.7L1890.83 1041.7z" stroke="rgba(40, 40, 40, 0.45)" stroke-width="2"></path></g><defs><mask id="SvgjsMask1252"><rect width="1920" height="1080" fill="#ffffff"></rect></mask></defs></svg>